<svg xmlns="http://www.w3.org/2000/svg" width="1800" height="1050" viewBox="0 0 1800 1050">
  <defs>
    <style>
      .bg{fill:#fbfaf7}
      .title{font:800 34px Arial,Helvetica,sans-serif;letter-spacing:2px;fill:#111}
      .subtitle{font:800 18px Arial,Helvetica,sans-serif;letter-spacing:3px;fill:#111}
      .caption{font:400 14px Arial,Helvetica,sans-serif;fill:#555}
      .legend{font:700 12px Arial,Helvetica,sans-serif;letter-spacing:1.3px;fill:#444}
      .page{fill:#111}
      .pageText{font:800 13px Arial,Helvetica,sans-serif;fill:white}
      .root{fill:#25a8df}
      .rootText{font:800 14px Arial,Helvetica,sans-serif;fill:white}
      .node{fill:white;stroke:#111;stroke-width:1.2}
      .nodeText{font:700 12px Arial,Helvetica,sans-serif;fill:#111}
      .component{fill:#d7ad32}
      .componentText{font:800 13px Arial,Helvetica,sans-serif;fill:#111}
      .api{fill:#eef6fb;stroke:#1987b8;stroke-width:1.2}
      .apiText{font:700 12px Arial,Helvetica,sans-serif;fill:#11455d}
      .auth{fill:#f2ece5;stroke:#7e6047;stroke-width:1.2}
      .authText{font:700 12px Arial,Helvetica,sans-serif;fill:#4b3322}
      .line{stroke:#d2a729;stroke-width:4;fill:none;stroke-linecap:square}
      .thin{stroke:#d2a729;stroke-width:3;fill:none;stroke-linecap:square}
    </style>
  </defs>
  <rect class="bg" width="1800" height="1050"/>

  <text x="900" y="55" text-anchor="middle" class="title">◆ YUMMY DIARY</text>
  <text x="900" y="110" text-anchor="middle" class="subtitle">ADMIN WEBSITE SITEMAP</text>

  <rect x="595" y="132" width="14" height="14" class="page"/>
  <text x="620" y="144" class="legend">PAGE</text>
  <rect x="675" y="132" width="14" height="14" class="node"/>
  <text x="700" y="144" class="legend">SECTION / FUNCTION</text>
  <rect x="875" y="132" width="14" height="14" class="component"/>
  <text x="900" y="144" class="legend">SHARED COMPONENT</text>
  <rect x="1090" y="132" width="14" height="14" class="api"/>
  <text x="1115" y="144" class="legend">ADMIN API</text>
  <rect x="1210" y="132" width="14" height="14" class="auth"/>
  <text x="1235" y="144" class="legend">AUTH / SESSION</text>

  <rect x="805" y="185" width="190" height="44" class="root"/>
  <text x="900" y="212" text-anchor="middle" class="rootText">Admin Console</text>
  <path d="M900 229 V292 M120 292 H1680" class="line"/>

  <g transform="translate(55 322)">
    <rect width="150" height="44" class="auth"/>
    <text x="75" y="28" text-anchor="middle" class="authText">Login Page</text>
    <path d="M75 44 V76 M35 76 H115" class="line"/>
    <rect x="-5" y="98" width="160" height="36" class="node"/>
    <text x="75" y="121" text-anchor="middle" class="nodeText">Admin Credentials</text>
    <path d="M75 134 V150" class="thin"/>
    <rect x="-5" y="150" width="160" height="36" class="auth"/>
    <text x="75" y="173" text-anchor="middle" class="authText">Session Create</text>
    <path d="M75 186 V202" class="thin"/>
    <rect x="-5" y="202" width="160" height="36" class="auth"/>
    <text x="75" y="225" text-anchor="middle" class="authText">auth_admin.php</text>
  </g>

  <g transform="translate(290 322)">
    <rect width="150" height="44" class="page"/>
    <text x="75" y="28" text-anchor="middle" class="pageText">Dashboard</text>
    <path d="M75 44 V76 M35 76 H115" class="line"/>
    <rect x="-5" y="98" width="160" height="36" class="node"/>
    <text x="75" y="121" text-anchor="middle" class="nodeText">Sales Overview</text>
    <path d="M75 134 V150" class="thin"/>
    <rect x="-5" y="150" width="160" height="36" class="node"/>
    <text x="75" y="173" text-anchor="middle" class="nodeText">Order Metrics</text>
    <path d="M75 186 V202" class="thin"/>
    <rect x="-5" y="202" width="160" height="36" class="api"/>
    <text x="75" y="225" text-anchor="middle" class="apiText">visitors_api.php</text>
  </g>

  <g transform="translate(525 322)">
    <rect width="160" height="44" class="page"/>
    <text x="80" y="28" text-anchor="middle" class="pageText">Product Mgmt</text>
    <path d="M80 44 V76 M20 76 H140" class="line"/>
    <rect x="-35" y="98" width="130" height="36" class="node"/>
    <text x="30" y="121" text-anchor="middle" class="nodeText">Product List</text>
    <rect x="110" y="98" width="130" height="36" class="node"/>
    <text x="175" y="121" text-anchor="middle" class="nodeText">Add Product</text>
    <path d="M30 134 V150" class="thin"/>
    <path d="M175 134 V150" class="thin"/>
    <rect x="-35" y="150" width="130" height="36" class="node"/>
    <text x="30" y="173" text-anchor="middle" class="nodeText">Edit Product</text>
    <rect x="110" y="150" width="130" height="36" class="node"/>
    <text x="175" y="173" text-anchor="middle" class="nodeText">Variants</text>
    <path d="M102 186 V206" class="thin"/>
    <rect x="12" y="206" width="180" height="36" class="api"/>
    <text x="102" y="229" text-anchor="middle" class="apiText">product_api.php</text>
  </g>

  <g transform="translate(785 322)">
    <rect width="160" height="44" class="page"/>
    <text x="80" y="28" text-anchor="middle" class="pageText">Product Sort</text>
    <path d="M80 44 V76 M35 76 H125" class="line"/>
    <rect x="-5" y="98" width="170" height="36" class="node"/>
    <text x="80" y="121" text-anchor="middle" class="nodeText">Drag / Reorder</text>
    <path d="M80 134 V150" class="thin"/>
    <rect x="-5" y="150" width="170" height="36" class="node"/>
    <text x="80" y="173" text-anchor="middle" class="nodeText">Category Sequence</text>
    <path d="M80 186 V206" class="thin"/>
    <rect x="-5" y="206" width="170" height="36" class="api"/>
    <text x="80" y="229" text-anchor="middle" class="apiText">product_api.php</text>
  </g>

  <g transform="translate(1035 322)">
    <rect width="160" height="44" class="page"/>
    <text x="80" y="28" text-anchor="middle" class="pageText">Inventory</text>
    <path d="M80 44 V76 M35 76 H125" class="line"/>
    <rect x="-5" y="98" width="170" height="36" class="node"/>
    <text x="80" y="121" text-anchor="middle" class="nodeText">Stock Levels</text>
    <path d="M80 134 V150" class="thin"/>
    <rect x="-5" y="150" width="170" height="36" class="node"/>
    <text x="80" y="173" text-anchor="middle" class="nodeText">SKU / Variant Stock</text>
    <path d="M80 186 V202" class="thin"/>
    <rect x="-5" y="202" width="170" height="36" class="node"/>
    <text x="80" y="225" text-anchor="middle" class="nodeText">Low Stock Review</text>
  </g>

  <g transform="translate(1285 322)">
    <rect width="160" height="44" class="page"/>
    <text x="80" y="28" text-anchor="middle" class="pageText">Orders</text>
    <path d="M80 44 V76 M20 76 H140" class="line"/>
    <rect x="-35" y="98" width="130" height="36" class="node"/>
    <text x="30" y="121" text-anchor="middle" class="nodeText">Order List</text>
    <rect x="110" y="98" width="130" height="36" class="node"/>
    <text x="175" y="121" text-anchor="middle" class="nodeText">Order Detail</text>
    <path d="M30 134 V150" class="thin"/>
    <path d="M175 134 V150" class="thin"/>
    <rect x="-35" y="150" width="130" height="36" class="node"/>
    <text x="30" y="173" text-anchor="middle" class="nodeText">Payment Status</text>
    <rect x="110" y="150" width="130" height="36" class="node"/>
    <text x="175" y="173" text-anchor="middle" class="nodeText">Fulfilment</text>
    <path d="M102 186 V206" class="thin"/>
    <rect x="12" y="206" width="180" height="36" class="api"/>
    <text x="102" y="229" text-anchor="middle" class="apiText">orders_api.php</text>
  </g>

  <g transform="translate(1545 322)">
    <rect width="160" height="44" class="page"/>
    <text x="80" y="28" text-anchor="middle" class="pageText">Promotions</text>
    <path d="M80 44 V76 M35 76 H125" class="line"/>
    <rect x="-5" y="98" width="170" height="36" class="node"/>
    <text x="80" y="121" text-anchor="middle" class="nodeText">Promotion List</text>
    <path d="M80 134 V150" class="thin"/>
    <rect x="-5" y="150" width="170" height="36" class="node"/>
    <text x="80" y="173" text-anchor="middle" class="nodeText">Create / Update</text>
    <path d="M80 186 V202" class="thin"/>
    <rect x="-5" y="202" width="170" height="36" class="node"/>
    <text x="80" y="225" text-anchor="middle" class="nodeText">Discount Rules</text>
  </g>

  <rect x="520" y="700" width="220" height="46" class="component"/>
  <text x="630" y="728" text-anchor="middle" class="componentText">Shared Admin Layout</text>
  <path d="M630 746 V782" class="line"/>
  <rect x="420" y="782" width="420" height="62" class="node"/>
  <text x="630" y="806" text-anchor="middle" class="nodeText">Sidebar Navigation / Mobile Bottom Nav</text>
  <text x="630" y="824" text-anchor="middle" class="nodeText">Dashboard · Products · Orders · Inventory · More</text>

  <rect x="1060" y="700" width="220" height="46" class="auth"/>
  <text x="1170" y="728" text-anchor="middle" class="authText">Session Controls</text>
  <path d="M1170 746 V782" class="line"/>
  <rect x="960" y="782" width="420" height="62" class="node"/>
  <text x="1170" y="806" text-anchor="middle" class="nodeText">Protected Pages / Logout / Access Guard</text>
  <text x="1170" y="824" text-anchor="middle" class="nodeText">login.php · logout.php · auth_admin.php</text>

  <text x="900" y="978" text-anchor="middle" class="caption">Admin sitemap showing authenticated management areas for products, inventory, orders, promotions, sorting, and reporting APIs.</text>
</svg>
